<?xml version="1.0" standalone="no"?>
<!DOCTYPE svg PUBLIC "-//W3C//DTD SVG 20010904//EN"
 "http://www.w3.org/TR/2001/REC-SVG-20010904/DTD/svg10.dtd">
<svg version="1.0" xmlns="http://www.w3.org/2000/svg"
 width="225.000000pt" height="225.000000pt" viewBox="0 0 225.000000 225.000000"
 preserveAspectRatio="xMidYMid meet">

<g transform="translate(0.000000,225.000000) scale(0.100000,-0.100000)"
fill="#000000" stroke="none">
<path d="M1129 1961 c-53 -56 -83 -140 -75 -211 l6 -55 -52 -1 c-29 0 -66 -7
-83 -16 -25 -12 -34 -13 -54 -2 -68 35 -195 22 -284 -31 -135 -79 -265 -214
-327 -340 -52 -105 -70 -179 -70 -290 0 -198 77 -374 229 -526 78 -78 141
-116 208 -126 21 -3 54 -16 73 -28 84 -56 241 -71 319 -31 33 18 34 17 83 -9
105 -57 257 -37 351 45 26 23 52 38 58 35 19 -12 86 -7 117 9 17 9 46 35 66
58 31 36 42 42 69 40 45 -4 91 30 155 113 65 86 127 211 148 302 19 82 14 256
-10 348 -42 159 -118 257 -278 365 -107 72 -143 84 -217 76 -83 -10 -92 -10
-145 10 -40 14 -59 16 -108 8 l-59 -10 -16 30 c-20 38 -12 100 22 173 l25 54
-25 25 c-38 38 -80 32 -126 -15z m107 -2 c3 -6 -1 -27 -9 -47 -25 -59 -37
-134 -27 -176 11 -48 53 -93 100 -106 58 -16 69 -28 34 -36 -16 -3 -33 -12
-39 -19 -29 -35 -88 -45 -121 -21 -14 11 -35 13 -76 9 -44 -4 -63 -2 -83 11
-39 25 -31 44 31 73 48 22 55 28 49 47 -19 60 -17 123 5 167 39 77 68 109 100
109 16 0 32 -5 36 -11z m169 -290 c22 -6 48 -18 57 -26 15 -13 19 -13 40 1 14
10 44 16 83 16 55 0 68 -5 134 -45 93 -57 179 -128 221 -182 68 -89 110 -237
110 -391 0 -112 -11 -162 -60 -268 -89 -194 -203 -304 -259 -251 -10 9 -15 9
-18 0 -14 -39 -69 -97 -108 -114 -41 -18 -47 -18 -81 -4 l-37 15 -36 -39 c-48
-51 -112 -82 -182 -88 -76 -7 -118 2 -170 37 l-44 29 -30 -19 c-54 -33 -116
-43 -181 -30 -66 14 -108 32 -142 63 -16 15 -33 21 -54 18 -56 -5 -149 51
-232 141 -81 88 -119 151 -159 264 -58 162 -54 307 13 466 59 140 225 310 368
376 69 32 177 36 229 8 29 -14 36 -15 55 -2 13 8 39 17 58 20 l35 6 -33 -17
c-29 -15 -33 -21 -30 -52 2 -27 11 -41 37 -58 36 -24 98 -31 131 -13 14 7 23
6 34 -5 9 -10 34 -15 70 -15 44 0 60 5 84 25 17 14 36 25 44 25 8 0 19 5 26
12 28 28 3 70 -50 83 -16 4 -25 11 -22 16 7 12 50 11 99 -2z"/>
<path d="M688 1251 c-30 -27 -55 -63 -77 -111 -35 -76 -35 -96 2 -63 41 38 92
63 128 63 43 0 108 -43 135 -89 29 -49 37 -37 32 47 -9 137 -48 192 -136 192
-31 0 -48 -8 -84 -39z"/>
<path d="M1431 1273 c-56 -28 -71 -64 -71 -170 0 -56 4 -93 10 -93 6 0 10 9
10 20 0 31 73 98 115 106 48 9 107 -10 149 -46 44 -39 49 -38 31 8 -58 139
-163 215 -244 175z"/>
<path d="M1080 1000 c-22 -44 -40 -84 -40 -90 0 -6 37 -10 95 -10 l95 0 -46
90 c-26 50 -50 90 -55 90 -5 0 -27 -36 -49 -80z"/>
<path d="M620 939 c0 -99 119 -344 200 -413 41 -34 57 -33 65 7 12 58 15 65
33 62 77 -15 73 -13 67 -53 -3 -20 -8 -46 -10 -58 -4 -19 2 -22 64 -32 49 -9
92 -9 151 -1 117 14 119 16 113 88 l-6 58 37 7 c47 9 56 2 56 -40 0 -25 4 -34
17 -34 23 0 101 84 140 151 33 55 83 211 83 257 0 23 -2 22 -30 -16 -71 -99
-188 -162 -329 -178 -47 -5 -61 -10 -61 -23 0 -9 -5 -33 -11 -53 l-10 -38 -59
0 -59 0 -11 43 c-17 66 -18 67 -49 67 -49 0 -186 48 -243 85 -29 20 -74 59
-100 88 -44 48 -48 50 -48 26z"/>
</g>
</svg>
